arm26_elbow_motion
version=1
nRows=250
nColumns=2
inDegrees=no
endheader
time	r_elbow_flex
0.092682	0.35297192
0.106804	0.34673699
0.145835	0.34002537
0.161733	0.33291165
0.178214	0.32536829
0.189842	0.31790782
0.206569	0.31159820
0.214885	0.30666438
0.224141	0.30527404
0.247615	0.30440019
0.261796	0.30411074
0.273325	0.30449243
0.289032	0.30532184
0.313654	0.30645741
0.324426	0.30776111
0.331354	0.30925725
0.340815	0.31116035
0.356925	0.31328241
0.373600	0.31552907
0.398836	0.31797204
0.403496	0.32067556
0.429182	0.32372149
0.436648	0.32704383
0.452965	0.33053614
0.466281	0.33428048
0.482834	0.33824058
0.499307	0.34221301
0.506084	0.34613568
0.524530	0.35018033
0.549724	0.35439964
0.557842	0.35844863
0.582402	0.36219484
0.602863	0.36566824
0.644707	0.36898131
0.651513	0.37208759
0.659258	0.37466095
0.673997	0.37636210
0.689812	0.37777268
0.705840	0.37913014
0.721480	0.38012930
0.737520	0.38059297
0.755694	0.38084476
0.842936	0.38096647
0.884053	0.38113578
0.896071	0.37951154
0.912965	0.37773553
0.929767	0.37569500
0.944979	0.37319019
0.955932	0.36994187
0.963035	0.36633101
0.979516	0.36248923
0.987737	0.35988629
1.016886	0.35678384
1.028171	0.35372012
1.036226	0.35105012
1.057472	0.34892674
1.064549	0.34703304
1.076039	0.34531540
1.094767	0.34386598
1.104861	0.34267357
1.128320	0.34173898
1.144758	0.34112892
1.161350	0.34058043
1.177432	0.34007488
1.195234	0.33977071
1.202367	0.33981651
1.211420	0.34012513
1.246218	0.34041370
1.253057	0.34070328
1.269094	0.34124515
1.279545	0.34220236
1.348842	0.34331625
1.363744	0.34436638
1.381723	0.34566199
1.412677	0.34740701
1.428729	0.34936445
1.444908	0.35147249
1.464139	0.35455540
1.472279	0.35821510
1.482175	0.36226393
1.497210	0.36663592
1.513689	0.37128194
1.530343	0.37605099
1.547436	0.38100527
1.553672	0.38533227
1.565205	0.38940887
1.578217	0.39324332
1.594851	0.39650958
1.611864	0.39931578
1.629481	0.40163389
1.637095	0.40284353
1.648481	0.40266573
1.665741	0.40127201
1.680762	0.39901228
1.694859	0.39621961
1.706845	0.39283296
1.715234	0.38906740
1.732669	0.38543141
1.748572	0.38214697
1.778155	0.37912302
1.789142	0.37618505
1.813453	0.37345760
1.822991	0.37141857
1.832660	0.37036066
1.861365	0.37013747
1.869790	0.37055307
1.880097	0.37180432
1.894756	0.37406636
1.920564	0.37690448
1.944792	0.37980704
1.952015	0.38293090
1.961189	0.38641244
1.981389	0.38997069
1.996196	0.39330142
2.030069	0.39648064
2.035879	0.39999856
2.048119	0.40414534
2.079406	0.40880822
2.087770	0.41404726
2.111416	0.42001250
2.120873	0.42644237
2.131778	0.43277576
2.148294	0.43844735
2.178285	0.44307018
2.186103	0.44623800
2.200169	0.44782378
2.230380	0.44805021
2.237650	0.44760694
2.279402	0.44716911
2.297062	0.44697000
2.313481	0.44698698
2.331537	0.44739043
2.346203	0.44813157
2.354465	0.44931949
2.362772	0.45083131
2.379849	0.45203288
2.399216	0.45267765
2.413119	0.45313231
2.430221	0.45368431
2.437120	0.45434160
2.447286	0.45504149
2.462565	0.45580097
2.480277	0.45711079
2.497149	0.45914753
2.545849	0.46157036
2.597321	0.46418514
2.607365	0.46718824
2.627670	0.47050085
2.636013	0.47400086
2.661793	0.47752278
2.677689	0.48093939
2.695175	0.48430039
2.711199	0.48749392
2.718811	0.49039837
2.743221	0.49322922
2.754755	0.49611390
2.775418	0.49899236
2.791896	0.50189170
2.800193	0.50482245
2.861478	0.50768509
2.877795	0.51031252
2.896558	0.51261170
2.914128	0.51445910
2.929825	0.51548201
2.945929	0.51599672
2.954163	0.51645452
2.962476	0.51644371
2.970793	0.51605290
2.978919	0.51537046
2.987893	0.51443931
3.014622	0.51354772
3.030459	0.51241216
3.041813	0.51084418
3.052212	0.50946296
3.096030	0.50832003
3.114371	0.50731852
3.127790	0.50632775
3.136651	0.50545357
3.148284	0.50481510
3.161016	0.50423633
3.179229	0.50362694
3.190465	0.50311194
3.210871	0.50271426
3.244094	0.50243967
3.261797	0.50228866
3.296517	0.50225450
3.313049	0.50224107
3.322157	0.50228606
3.330760	0.50240383
3.344368	0.50256310
3.360750	0.50276547
3.378111	0.50288474
3.387421	0.50290645
3.398268	0.50292380
3.414124	0.50293780
3.462185	0.50284422
3.474146	0.50262287
3.494464	0.50233786
3.510711	0.50212509
3.530217	0.50182801
3.546699	0.50163512
3.553962	0.50175617
3.564327	0.50217743
3.578132	0.50273691
3.586000	0.50339000
3.611990	0.50420039
3.625420	0.50531743
3.637076	0.50653136
3.661675	0.50774724
3.678959	0.50891007
3.696635	0.51017363
3.711144	0.51162428
3.720665	0.51333906
3.746624	0.51546901
3.754141	0.51811508
3.764220	0.52093195
3.776664	0.52361032
3.810977	0.52618025
3.845917	0.52874887
3.862575	0.53112679
3.870787	0.53299859
3.879585	0.53433984
3.900652	0.53548437
3.904594	0.53664283
3.913695	0.53752108
3.927485	0.53797367
3.944202	0.53817044
3.961159	0.53828078
3.995056	0.53812216
4.011038	0.53739981
4.027640	0.53625320
4.045912	0.53508188
4.054384	0.53398718
4.080564	0.53276437
4.097099	0.53128325
4.113436	0.52950431
4.128906	0.52755303
4.144423	0.52559891
4.152282	0.52366225
4.162363	0.52172326
4.177826	0.51983026
4.195942	0.51808100
4.203095	0.51668392
4.210677	0.51567370
4.338062	0.51479884
4.343611	0.51358743
4.358976	0.51226899
4.362796	0.51133226
4.375973	0.51077825
4.393987	0.51031955
